<mxfile host="app.diagrams.net" modified="2024-02-23T14:09:56.241Z" agent="Mozilla/5.0 (Windows NT 10.0; Win64; x64) AppleWebKit/537.36 (KHTML, like Gecko) Chrome/122.0.0.0 Safari/537.36" version="23.1.6" etag="9LYxJJQVVXCe9ZNQepiz" type="github">
  <diagram name="Page-1" id="y8X-VENI5xt8JdX25XWL">
    <mxGraphModel>
      <root>
        <mxCell id="0" />
        <mxCell id="1" parent="0" />
      </root>
    </mxGraphModel>
  </diagram>
</mxfile>
